<?xml version="1.0" encoding="UTF-8" standalone="no"?>
<!-- Created with Inkscape (http://www.inkscape.org/) -->

<svg
   width="512"
   height="512"
   viewBox="0 0 512 512"
   version="1.1"
   id="svg1"
   xml:space="preserve"
   inkscape:version="1.3.2 (091e20ef0f, 2023-11-25, custom)"
   sodipodi:docname="dxI2.svg"
   xmlns:inkscape="http://www.inkscape.org/namespaces/inkscape"
   xmlns:sodipodi="http://sodipodi.sourceforge.net/DTD/sodipodi-0.dtd"
   xmlns="http://www.w3.org/2000/svg"
   xmlns:svg="http://www.w3.org/2000/svg"><sodipodi:namedview
     id="namedview1"
     pagecolor="#505050"
     bordercolor="#eeeeee"
     borderopacity="1"
     inkscape:showpageshadow="0"
     inkscape:pageopacity="0"
     inkscape:pagecheckerboard="0"
     inkscape:deskcolor="#505050"
     inkscape:document-units="px"
     inkscape:zoom="0.79483968"
     inkscape:cx="125.81153"
     inkscape:cy="373.66026"
     inkscape:window-width="1975"
     inkscape:window-height="1194"
     inkscape:window-x="0"
     inkscape:window-y="0"
     inkscape:window-maximized="1"
     inkscape:current-layer="layer1" /><defs
     id="defs1"><linearGradient
       id="swatch18"
       inkscape:swatch="solid"><stop
         style="stop-color:#ffffff;stop-opacity:0.00265605;"
         offset="0"
         id="stop18" /></linearGradient></defs><g
     inkscape:label="Layer 1"
     inkscape:groupmode="layer"
     id="layer1"><g
       id="g3104"
       transform="matrix(0.27408684,0,0,-0.27408684,532.56438,584.26664)"
       style="fill:#ffffff"><path
         id="path3106"
         d="m 166,-1111 c -54,0 -111,30 -111,85 0,27 21,41 42,41 21,0 42,-14 42,-41 0,-26 -19,-40 -38,-42 16,-13 39,-21 65,-21 78,0 97,100 97,207 v 653 c 0,116 68,229 180,229 54,0 111,-30 111,-85 0,-28 -21,-41 -42,-41 -21,0 -42,13 -42,41 0,26 19,40 38,42 -16,13 -39,21 -65,21 -78,0 -97,-101 -97,-207 v -653 c 0,-116 -68,-229 -180,-229 z"
         inkscape:connector-curvature="0"
         style="fill:#ffffff" /></g><g
       inkscape:groupmode="layer"
       id="layer2"
       inkscape:label="Background"
       style="display:inline;fill:#000000"><rect
         style="fill:#000000;stroke-width:4.40315"
         id="rect3"
         width="536.60022"
         height="533.71136"
         x="-10.833113"
         y="-10.833113" /></g><rect
       style="fill:#ffffff;fill-opacity:0.00796814;stroke:#ffffff;stroke-width:15.497;stroke-dasharray:none;stroke-opacity:1"
       id="rect18"
       width="499.0929"
       height="499.0929"
       x="6.4535522"
       y="6.4535522" /><text
       xml:space="preserve"
       style="font-style:normal;font-variant:normal;font-weight:normal;font-stretch:normal;font-size:133.335px;font-family:'Standard Symbols PS';-inkscape-font-specification:'Standard Symbols PS, Normal';font-variant-ligatures:normal;font-variant-caps:normal;font-variant-numeric:normal;font-variant-east-asian:normal;display:none;fill:#000000;stroke-width:4.40315"
       x="76.554001"
       y="186.32954"
       id="text3"><tspan
         sodipodi:role="line"
         id="tspan3"
         x="76.554001"
         y="186.32954"
         style="font-style:normal;font-variant:normal;font-weight:normal;font-stretch:normal;font-size:133.335px;font-family:'Standard Symbols PS';-inkscape-font-specification:'Standard Symbols PS, Normal';font-variant-ligatures:normal;font-variant-caps:normal;font-variant-numeric:normal;font-variant-east-asian:normal;fill:#ffffff" /></text><g
       id="g3268"
       transform="matrix(0.40470807,-0.01305135,-0.01305135,-0.40470807,242.26883,361.31424)"
       style="display:inline;fill:#ffffff"
       inkscape:label="Favorite Integral"><path
         id="path3270"
         d="m 609,722 c 0,-30 -22,-43 -42,-43 -19,0 -41,13 -41,42 0,14 8,37 37,41 -22,19 -53,21 -63,21 -45,0 -79,-25 -93,-209 L 388,325 c -8,-111 -44,-402 -57,-454 -22,-90 -70,-177 -165,-177 -60,0 -110,35 -110,83 0,30 22,43 42,43 19,0 41,-13 41,-42 0,-14 -8,-37 -37,-41 21,-18 51,-21 64,-21 57,0 93,45 106,209 l 19,249 c 9,121 45,403 57,458 17,76 56,173 151,173 60,0 110,-35 110,-83 z"
         inkscape:connector-curvature="0"
         style="fill:#ffffff" /></g><g
       inkscape:label=""
       transform="matrix(8.3398113,0,0,8.3398113,32.674334,158.96315)"
       id="g17"
       style="fill:#ffffff"><g
   fill="#000000"
   fill-opacity="1"
   id="g16"
   transform="matrix(1.33333,0,0,1.33333,-3.96983,-2.66917)"
   style="fill:#ffffff">
    <g
   id="g14"
   transform="translate(1.993,19.205)"
   style="fill:#ffffff">
      <path
   d="m 12.46875,-16.578125 c 0.01563,-0.09375 0.07813,-0.25 0.07813,-0.375 0,-0.25 -0.25,-0.25 -0.3125,-0.25 -0.01563,0 -1.234375,0.109375 -1.359375,0.125 -0.421875,0.03125 -0.78125,0.07813 -1.234375,0.109375 -0.625,0.04687 -0.796875,0.0625 -0.796875,0.515625 0,0.25 0.203125,0.25 0.546875,0.25 1.21875,0 1.234375,0.21875 1.234375,0.46875 0,0.140625 -0.04687,0.34375 -0.0625,0.421875 L 9.04688,-9.296875 c -0.28125,-0.640625 -0.9375,-1.625 -2.234375,-1.625 -2.796875,0 -5.828125,3.609375 -5.828125,7.28125 0,2.453125 1.4375,3.890625 3.125,3.890625 1.375,0 2.53125,-1.0625 3.21875,-1.890625 C 7.578125,-0.171875 8.75,0.25 9.484375,0.25 c 0.75,0 1.34375,-0.453125 1.796875,-1.34375 0.390625,-0.84375 0.734375,-2.34375 0.734375,-2.453125 0,-0.125 -0.09375,-0.21875 -0.25,-0.21875 -0.21875,0 -0.25,0.125 -0.34375,0.5 C 11.046875,-1.8125 10.578125,-0.25 9.5625,-0.25 c -0.71875,0 -0.765625,-0.640625 -0.765625,-1.140625 0,-0.09375 0,-0.609375 0.171875,-1.3125 z m -5.015625,13.625 c -0.125,0.421875 -0.125,0.46875 -0.46875,0.953125 -0.546875,0.6875 -1.625,1.75 -2.796875,1.75 -1.015625,0 -1.578125,-0.921875 -1.578125,-2.375 0,-1.359375 0.765625,-4.140625 1.234375,-5.1875 0.84375,-1.734375 2,-2.625 2.96875,-2.625 1.640625,0 1.953125,2.03125 1.953125,2.234375 0,0.03125 -0.0625,0.34375 -0.09375,0.390625 z m 0,0"
   id="path13"
   style="fill:#ffffff" />
    </g>
    <g
   id="g15"
   transform="translate(14.604676,19.205)"
   style="fill:#ffffff">
      <path
   d="m 11.75,-10.109375 c -0.796875,0.140625 -1.09375,0.734375 -1.09375,1.21875 0,0.59375 0.46875,0.78125 0.8125,0.78125 0.75,0 1.265625,-0.640625 1.265625,-1.3125 0,-1.03125 -1.1875,-1.5 -2.234375,-1.5 -1.5,0 -2.34375,1.484375 -2.5625,1.953125 -0.578125,-1.859375 -2.109375,-1.953125 -2.5625,-1.953125 -2.53125,0 -3.859375,3.234375 -3.859375,3.78125 0,0.109375 0.09375,0.234375 0.265625,0.234375 0.203125,0 0.25,-0.15625 0.296875,-0.25 0.84375,-2.75 2.5,-3.28125 3.21875,-3.28125 1.125,0 1.34375,1.046875 1.34375,1.640625 C 6.640625,-8.25 6.5,-7.6875 6.1875,-6.5 l -0.828125,3.40625 c -0.375,1.484375 -1.09375,2.84375 -2.40625,2.84375 -0.125,0 -0.75,0 -1.265625,-0.3125 0.890625,-0.1875 1.09375,-0.921875 1.09375,-1.21875 0,-0.5 -0.375,-0.796875 -0.84375,-0.796875 -0.59375,0 -1.25,0.515625 -1.25,1.3125 0,1.046875 1.171875,1.515625 2.234375,1.515625 1.1875,0 2.03125,-0.9375 2.5625,-1.953125 C 5.875,-0.25 7.109375,0.25 8.03125,0.25 c 2.53125,0 3.859375,-3.25 3.859375,-3.796875 0,-0.125 -0.09375,-0.21875 -0.25,-0.21875 -0.21875,0 -0.234375,0.125 -0.3125,0.328125 -0.671875,2.171875 -2.109375,3.1875 -3.21875,3.1875 -0.875,0 -1.34375,-0.640625 -1.34375,-1.65625 0,-0.546875 0.09375,-0.9375 0.5,-2.578125 L 8.125,-7.859375 C 8.5,-9.34375 9.34375,-10.4375 10.484375,-10.4375 c 0.04687,0 0.734375,0 1.265625,0.328125 z m 0,0"
   id="path14"
   style="fill:#ffffff" />
    </g>
  </g>
</g></g></svg>
